<?xml version="1.0" encoding="UTF-8"?>
<svg version="1.1" xmlns="http://www.w3.org/2000/svg" width="512" height="512">
<path d="M0 0 C1.06804367 -0.00570007 2.13608734 -0.01140015 3.23649597 -0.01727295 C5.48960396 -0.02666958 7.74272536 -0.03323553 9.99584961 -0.03710938 C13.37053802 -0.04673965 16.74459656 -0.07778415 20.11914062 -0.109375 C59.92169461 -0.30441305 94.0414873 9.9578872 123.60546875 37.203125 C124.4253125 37.94046875 125.24515625 38.6778125 126.08984375 39.4375 C148.02647696 60.12950154 163.70893255 92.94842457 164.703125 123.171875 C164.68572266 124.42484375 164.68572266 124.42484375 164.66796875 125.703125 C164.65894531 126.5590625 164.64992188 127.415 164.640625 128.296875 C164.62322266 129.24046875 164.62322266 129.24046875 164.60546875 130.203125 C165.58902344 130.16832031 166.57257813 130.13351563 167.5859375 130.09765625 C192.7905573 129.48704635 216.56146472 134.95370094 238.60546875 147.203125 C239.51425781 147.69554687 240.42304688 148.18796875 241.359375 148.6953125 C259.69942118 159.11646234 275.34555841 174.43894868 286.60546875 192.203125 C287.66507812 193.86408203 287.66507812 193.86408203 288.74609375 195.55859375 C307.078493 225.96098869 311.77909493 262.85808913 303.9140625 297.29296875 C301.66046526 306.24102271 298.20668398 314.80227492 294.73852539 323.33642578 C291.81523736 330.73814586 291.34424693 337.55795821 294.16796875 345.140625 C298.17579815 353.98597481 302.62003328 361.95684096 309.90625 368.484375 C311.72178253 370.32077572 312.68994601 371.79459594 313.60546875 374.203125 C313.47759971 377.84739278 313.36580901 380.26030308 311.04296875 383.140625 C303.74786906 386.32054025 293.91499498 383.29854365 286.38671875 382.00585938 C284.97132813 381.78833008 284.97132813 381.78833008 283.52734375 381.56640625 C282.6775293 381.42501221 281.82771484 381.28361816 280.95214844 381.13793945 C278.5076295 380.97778968 278.5076295 380.97778968 276.64892578 382.68969727 C273.87972805 384.74062399 272.38032961 384.40842577 268.98828125 384.0546875 C267.83489258 383.93641602 266.68150391 383.81814453 265.49316406 383.69628906 C257.34440668 382.66259841 249.21879205 381.46873728 241.10205078 380.20898438 C224.29840582 377.61687746 213.19309045 378.76278134 197.91796875 386.640625 C167.75584231 402.08198666 130.57529971 403.61046454 98.55834961 393.31494141 C64.68182832 381.82328885 35.80234002 358.43676447 19.57470703 326.25097656 C10.92138633 307.96783952 6.15536222 289.38421539 5.60546875 269.203125 C4.29835937 269.23792969 2.99125 269.27273438 1.64453125 269.30859375 C-25.59843505 269.81428153 -49.34751672 262.9867811 -73.28125 250.1484375 C-84.65881393 245.05902813 -101.41978191 249.9420496 -113.33203125 251.765625 C-116.38184557 252.2319995 -119.43270358 252.69048653 -122.484375 253.14453125 C-123.16161118 253.25076309 -123.83884735 253.35699493 -124.53660583 253.46644592 C-136.82096928 255.29251406 -136.82096928 255.29251406 -140.83203125 252.515625 C-142.60590358 249.89029395 -143.31711706 248.37710694 -143.39453125 245.203125 C-141.56945238 241.72195605 -139.44009632 239.06521498 -136.70703125 236.265625 C-128.31984746 227.04127315 -121.6227528 215.30541164 -121.7421875 202.671875 C-122.42413858 195.85551406 -125.37838944 189.56501102 -127.89379883 183.25854492 C-141.3050422 149.53028847 -139.23889991 112.33482409 -125.20703125 79.203125 C-119.07319696 65.35110873 -110.58634108 53.34336026 -100.39453125 42.203125 C-99.28658203 40.98882812 -99.28658203 40.98882812 -98.15625 39.75 C-88.30015668 29.44344538 -76.88957945 21.87815075 -64.39453125 15.203125 C-63.57855469 14.74292969 -62.76257813 14.28273438 -61.921875 13.80859375 C-43.0520627 3.61306909 -21.1943486 0.09024741 0 0 Z " fill="#20BFFB" transform="translate(170.39453125,55.796875)"/>
<path d="M0 0 C1.06804367 -0.00570007 2.13608734 -0.01140015 3.23649597 -0.01727295 C5.48960396 -0.02666958 7.74272536 -0.03323553 9.99584961 -0.03710938 C13.37053802 -0.04673965 16.74459656 -0.07778415 20.11914062 -0.109375 C59.92169461 -0.30441305 94.0414873 9.9578872 123.60546875 37.203125 C124.4253125 37.94046875 125.24515625 38.6778125 126.08984375 39.4375 C147.37240943 59.51254423 162.64742884 90.97683745 164.60546875 120.203125 C164.67759181 123.87166292 164.6661625 127.53452493 164.60546875 131.203125 C163.43266357 131.2124707 162.2598584 131.22181641 161.05151367 131.23144531 C156.60226641 131.27202548 152.15366259 131.33795248 147.70483398 131.41064453 C145.797693 131.43846733 143.89044498 131.45986903 141.9831543 131.47412109 C104.43086121 131.77113369 70.8343041 145.06623349 44.08544922 171.68847656 C18.01472435 198.36989805 7.3591559 232.67805475 5.60546875 269.203125 C-23.25439774 269.97158298 -47.85394302 263.78795208 -73.28125 250.1484375 C-84.65881393 245.05902813 -101.41978191 249.9420496 -113.33203125 251.765625 C-116.38184557 252.2319995 -119.43270358 252.69048653 -122.484375 253.14453125 C-123.16161118 253.25076309 -123.83884735 253.35699493 -124.53660583 253.46644592 C-136.82096928 255.29251406 -136.82096928 255.29251406 -140.83203125 252.515625 C-142.60590358 249.89029395 -143.31711706 248.37710694 -143.39453125 245.203125 C-141.56945238 241.72195605 -139.44009632 239.06521498 -136.70703125 236.265625 C-128.31984746 227.04127315 -121.6227528 215.30541164 -121.7421875 202.671875 C-122.42413858 195.85551406 -125.37838944 189.56501102 -127.89379883 183.25854492 C-141.3050422 149.53028847 -139.23889991 112.33482409 -125.20703125 79.203125 C-119.07319696 65.35110873 -110.58634108 53.34336026 -100.39453125 42.203125 C-99.28658203 40.98882812 -99.28658203 40.98882812 -98.15625 39.75 C-88.30015668 29.44344538 -76.88957945 21.87815075 -64.39453125 15.203125 C-63.57855469 14.74292969 -62.76257813 14.28273438 -61.921875 13.80859375 C-43.0520627 3.61306909 -21.1943486 0.09024741 0 0 Z " fill="#3D74F4" transform="translate(170.39453125,55.796875)"/>
<path d="M0 0 C0.86971436 0.13124268 1.73942871 0.26248535 2.63549805 0.39770508 C18.43421827 2.97694264 32.72935398 8.11872988 46.6875 15.875 C48.05068359 16.61363281 48.05068359 16.61363281 49.44140625 17.3671875 C67.78145243 27.78833734 83.42758966 43.11082368 94.6875 60.875 C95.74710937 62.53595703 95.74710937 62.53595703 96.828125 64.23046875 C115.16052425 94.63286369 119.86112618 131.52996413 111.99609375 165.96484375 C109.74249651 174.91289771 106.28871523 183.47414992 102.82055664 192.00830078 C99.89726861 199.41002086 99.42627818 206.22983321 102.25 213.8125 C106.2578294 222.65784981 110.70206453 230.62871596 117.98828125 237.15625 C119.80381378 238.99265072 120.77197726 240.46647094 121.6875 242.875 C121.55963096 246.51926778 121.44784026 248.93217808 119.125 251.8125 C112.88465201 254.53265169 104.83396846 252.49593645 98.3125 251.5 C97.41144531 251.37367188 96.51039063 251.24734375 95.58203125 251.1171875 C94.72222656 250.98828125 93.86242187 250.859375 92.9765625 250.7265625 C91.81181396 250.55374756 91.81181396 250.55374756 90.62353516 250.37744141 C88.6875 249.875 88.6875 249.875 86.6875 247.875 C86.749375 246.48474609 86.749375 246.48474609 86.8125 245.06640625 C86.65195533 240.96750002 85.4251191 239.80445871 82.6875 236.8125 C79.17453088 232.74455945 76.07161944 228.68366236 73.25 224.125 C72.61191406 223.09890625 71.97382813 222.0728125 71.31640625 221.015625 C66.93974486 212.57716995 65.89224273 202.73972183 68.30273438 193.52246094 C69.65290016 189.27981152 71.22194598 185.12664875 72.80078125 180.96484375 C74.65164578 176.08308344 76.17313102 171.15572845 77.5625 166.125 C77.76512451 165.41110107 77.96774902 164.69720215 78.17651367 163.96166992 C80.83850593 154.21558433 80.92898678 144.53910687 80.9375 134.5 C80.93817474 133.78635284 80.93884949 133.07270569 80.93954468 132.33743286 C80.89869277 105.12586315 73.88735541 73.49051295 54.6875 52.875 C50.2977013 49.48728246 45.73860359 47.07670113 40.6875 44.875 C39.97271484 44.56336914 39.25792969 44.25173828 38.52148438 43.93066406 C5.29533191 29.87787144 -32.36138139 29.57329856 -65.84375 42.96484375 C-100.0564982 57.27639429 -125.02952517 83.85365772 -139.44873047 117.73535156 C-152.80739264 150.82616991 -150.8165459 188.10804654 -137.18969727 220.71337891 C-133.28004578 229.59598939 -128.28633602 238.21865953 -122.3125 245.875 C-122.6425 246.535 -122.9725 247.195 -123.3125 247.875 C-153.72097049 228.72892599 -174.94776948 199.45334384 -183.23925781 164.43066406 C-190.99551078 129.41629836 -185.12499133 92.50332631 -165.98046875 62.0390625 C-163.85035813 58.8979887 -161.64026032 55.87194009 -159.3125 52.875 C-158.57128906 51.91335937 -157.83007812 50.95171875 -157.06640625 49.9609375 C-136.46696533 24.04205689 -107.67285944 7.21749405 -75.3125 0.875 C-74.43529297 0.70154053 -73.55808594 0.52808105 -72.65429688 0.34936523 C-68.47158632 -0.24436698 -64.35631799 -0.35689051 -60.13671875 -0.44140625 C-59.253293 -0.46218735 -58.36986725 -0.48296844 -57.45967102 -0.50437927 C-55.58961475 -0.5475087 -53.7195097 -0.58856657 -51.84936523 -0.62768555 C-49.04723416 -0.68650845 -46.24531716 -0.75184039 -43.44335938 -0.81835938 C-10.27218263 -1.58123195 -10.27218263 -1.58123195 0 0 Z " fill="#0DB0EE" transform="translate(362.3125,187.125)"/>
<path d="M0 0 C1.06804367 -0.00570007 2.13608734 -0.01140015 3.23649597 -0.01727295 C5.48960396 -0.02666958 7.74272536 -0.03323553 9.99584961 -0.03710938 C13.37053802 -0.04673965 16.74459656 -0.07778415 20.11914062 -0.109375 C59.92169461 -0.30441305 94.0414873 9.9578872 123.60546875 37.203125 C124.4253125 37.94046875 125.24515625 38.6778125 126.08984375 39.4375 C148.08160976 60.18150624 163.77480785 93.09035314 164.703125 123.390625 C164.68572266 124.7828125 164.68572266 124.7828125 164.66796875 126.203125 C164.65894531 127.151875 164.64992188 128.100625 164.640625 129.078125 C164.62902344 129.779375 164.61742187 130.480625 164.60546875 131.203125 C153.56018679 131.33691711 142.6246609 130.96683139 131.60546875 130.203125 C131.56550781 129.14996094 131.52554687 128.09679687 131.484375 127.01171875 C130.38674965 109.44150661 121.22541202 97.77765945 109.60546875 85.203125 C109.11062988 84.65914063 108.61579102 84.11515625 108.10595703 83.5546875 C91.81268472 65.80861142 71.41652969 54.39446881 48.60546875 47.203125 C47.12433594 46.72552734 47.12433594 46.72552734 45.61328125 46.23828125 C12.52511456 36.37074193 -23.15287365 42.99246949 -53.39453125 58.203125 C-57.24331366 60.31995533 -60.82986068 62.63952833 -64.39453125 65.203125 C-65.41675781 65.93015625 -66.43898438 66.6571875 -67.4921875 67.40625 C-92.89188083 85.94219194 -112.0953551 113.38048121 -118.58203125 144.390625 C-118.74638672 145.13248047 -118.91074219 145.87433594 -119.08007812 146.63867188 C-121.10535824 156.01071711 -121.55114786 164.94106106 -121.51953125 174.515625 C-121.52339844 175.67513672 -121.52726562 176.83464844 -121.53125 178.02929688 C-121.5232531 185.14254115 -121.18178165 192.13311431 -120.39453125 199.203125 C-124.38358224 197.2085995 -125.28841598 191.19852376 -126.76953125 187.203125 C-127.17365234 186.11837891 -127.57777344 185.03363281 -127.99414062 183.91601562 C-141.06558091 148.0490004 -139.4468438 109.7917107 -123.3984375 75.21484375 C-117.42957551 62.94435047 -109.57630208 52.23932945 -100.39453125 42.203125 C-99.28658203 40.98882812 -99.28658203 40.98882812 -98.15625 39.75 C-88.30015668 29.44344538 -76.88957945 21.87815075 -64.39453125 15.203125 C-63.57855469 14.74292969 -62.76257813 14.28273438 -61.921875 13.80859375 C-43.0520627 3.61306909 -21.1943486 0.09024741 0 0 Z " fill="#1D5AEA" transform="translate(170.39453125,55.796875)"/>
<path d="M0 0 C0.90878906 0.49242187 1.81757813 0.98484375 2.75390625 1.4921875 C21.09395243 11.91333734 36.74008966 27.23582368 48 45 C48.70640625 46.10730469 49.4128125 47.21460938 50.140625 48.35546875 C68.47302425 78.75786369 73.17362618 115.65496413 65.30859375 150.08984375 C63.05499651 159.03789771 59.60121523 167.59914992 56.13305664 176.13330078 C53.20976861 183.53502086 52.73877818 190.35483321 55.5625 197.9375 C59.5703294 206.78284981 64.01456453 214.75371596 71.30078125 221.28125 C73.11631378 223.11765072 74.08447726 224.59147094 75 227 C74.87213096 230.64426778 74.76034026 233.05717808 72.4375 235.9375 C66.19715201 238.65765169 58.14646846 236.62093645 51.625 235.625 C50.72394531 235.49867188 49.82289063 235.37234375 48.89453125 235.2421875 C48.03472656 235.11328125 47.17492187 234.984375 46.2890625 234.8515625 C45.51256348 234.73635254 44.73606445 234.62114258 43.93603516 234.50244141 C42 234 42 234 40 232 C40.04125 231.07316406 40.0825 230.14632812 40.125 229.19140625 C39.96445533 225.09250002 38.7376191 223.92945871 36 220.9375 C32.48703088 216.86955945 29.38411944 212.80866236 26.5625 208.25 C25.92441406 207.22390625 25.28632813 206.1978125 24.62890625 205.140625 C20.25224486 196.70216995 19.20474273 186.86472183 21.61523438 177.64746094 C22.96540016 173.40481152 24.53444598 169.25164875 26.11328125 165.08984375 C27.96414578 160.20808344 29.48563102 155.28072845 30.875 150.25 C31.17893677 149.17915161 31.17893677 149.17915161 31.48901367 148.08666992 C34.15100593 138.34058433 34.24148678 128.66410687 34.25 118.625 C34.25067474 117.91135284 34.25134949 117.19770569 34.25204468 116.46243286 C34.20812474 87.2072412 25.75702902 60.43399741 8 37 C7.45085937 36.22914063 6.90171875 35.45828125 6.3359375 34.6640625 C-2.45583501 22.66740741 -13.5477058 13.00604734 -26 5 C-27.07507813 4.30261719 -28.15015625 3.60523438 -29.2578125 2.88671875 C-45.13680067 -6.77956838 -63.48645848 -13.18494691 -82 -15 C-82 -15.33 -82 -15.66 -82 -16 C-53.52447115 -19.91894071 -25.00394357 -13.89420486 0 0 Z " fill="#079FEB" transform="translate(409,203)"/>
<path d="M0 0 C44.88007978 -0.79250345 82.95670699 5.62676919 117 37 C117.81984375 37.73734375 118.6396875 38.4746875 119.484375 39.234375 C141.47614101 59.97838124 157.1693391 92.88722814 158.09765625 123.1875 C158.08025391 124.5796875 158.08025391 124.5796875 158.0625 126 C158.05347656 126.94875 158.04445313 127.8975 158.03515625 128.875 C158.02355469 129.57625 158.01195312 130.2775 158 131 C146.95471804 131.13379211 136.01919215 130.76370639 125 130 C124.94054199 129.37770508 124.88108398 128.75541016 124.81982422 128.11425781 C121.03709633 90.14765194 106.42549512 56.15791662 76.64501953 31.30859375 C71.37749015 27.11833588 65.75085669 23.48536769 60 20 C59.40348633 19.63777344 58.80697266 19.27554688 58.19238281 18.90234375 C40.00195331 8.07399362 20.83456296 3.69820451 0 1 C0 0.67 0 0.34 0 0 Z " fill="#203BF1" transform="translate(177,56)"/>
<path d="M0 0 C4.00521387 2.88747977 7.46370991 6.48991981 9.6875 10.9375 C10.64447025 18.02392526 9.96726198 23.29898069 5.59375 29.0546875 C1.42811775 33.16910296 -3.17663603 34.63772962 -8.875 35.4375 C-15.41960715 34.48555714 -19.76685757 32.18669053 -23.8125 26.875 C-26.9514555 21.67771302 -27.381921 16.86541122 -26.3125 10.9375 C-21.1196973 0.15244825 -11.24412483 -3.60660608 0 0 Z " fill="#EDF9FE" transform="translate(261.3125,304.0625)"/>
<path d="M0 0 C4.76038584 3.4002756 8.9385001 8.03060054 9.99609375 13.953125 C10.18634905 20.17559256 8.59328909 24.09353691 4.625 28.875 C-0.2669518 33.40900411 -4.35343718 35.41102039 -10.99609375 35.2578125 C-16.38734245 34.39025524 -20.18909983 31.15212326 -23.8125 27.25 C-27.14878811 22.17884208 -27.07344901 16.75160549 -26.375 10.875 C-24.51010588 5.82389664 -21.32700337 1.88993601 -16.46484375 -0.50390625 C-10.9478203 -2.14354499 -5.40752943 -1.80250981 0 0 Z " fill="#EDF8FE" transform="translate(119.375,174.125)"/>
<path d="M0 0 C4.00521387 2.88747977 7.46370991 6.48991981 9.6875 10.9375 C10.44877825 17.65172456 9.98596739 23.5297507 5.6875 28.9375 C1.62525301 32.73976318 -2.34617397 35.28034122 -8 35.5 C-13.36904619 35.08915125 -16.89448134 33.12467841 -21 29.6875 C-24.99908846 24.93182724 -26.93565123 20.11061669 -26.66015625 13.91796875 C-25.53432305 7.50451447 -21.34344988 3.65602817 -16.3125 -0.0625 C-11.53581234 -2.45084383 -4.92259935 -1.57894696 0 0 Z " fill="#EDFAFE" transform="translate(376.3125,304.0625)"/>
<path d="M0 0 C4.36775158 3.14884416 7.96773395 6.77820184 9.6875 11.9375 C10.25474124 17.6644548 9.93131086 22.01585594 6.6875 26.9375 C2.38112928 32.08122058 -2.07878456 34.52593622 -8.75 35.375 C-14.47042367 34.67249183 -18.66273247 32.63068247 -22.6875 28.5 C-26.32039977 22.77119652 -27.29755392 17.6789628 -26.3125 10.9375 C-24.38730104 5.90963664 -21.27194042 1.95609758 -16.40234375 -0.44140625 C-10.92071594 -2.07052554 -5.3929654 -1.72981909 0 0 Z " fill="#EEF8FE" transform="translate(234.3125,174.0625)"/>
<path d="M0 0 C4.58246409 1.98515143 7.42634797 4.74021521 9.82421875 9.11328125 C11.94271162 14.7951377 11.46729882 20.28707524 8.984375 25.76171875 C6.43878477 30.19193895 3.48925931 32.59655166 -1.203125 34.63671875 C-6.46946179 35.90063958 -9.95196343 36.00361876 -14.953125 33.76171875 C-19.70944138 30.74760365 -23.1060366 26.57159168 -25.328125 21.38671875 C-26.21378949 16.42699761 -25.72333327 12.41934116 -23.140625 8.07421875 C-17.25086045 -0.32538864 -9.89112497 -2.60554802 0 0 Z " fill="#EEF8FE" transform="translate(175.328125,173.61328125)"/>
<path d="M0 0 C3.85463584 2.76450777 6.45556763 5.52545418 8.55078125 9.828125 C9.35945615 15.64912718 9.39554771 21.04472914 6.86328125 26.390625 C2.41835748 31.07581492 -2.01670408 35.06130351 -8.69921875 35.265625 C-13.96694426 35.14412886 -17.45378408 33.1456013 -21.44921875 29.828125 C-26.38554683 24.51207938 -26.91924149 19.97830861 -26.859375 12.9140625 C-26.20797664 8.01306534 -24.02079733 5.12687466 -20.44921875 1.828125 C-14.88248144 -2.41319866 -6.32236767 -3.0250563 0 0 Z " fill="#EDFAFE" transform="translate(319.44921875,304.171875)"/>
</svg>
